<svg width="37" height="38" viewBox="0 0 37 38" fill="none" xmlns="http://www.w3.org/2000/svg">
<path d="M24.7199 12.6806C24.7199 8.71027 21.4998 5.49023 17.5295 5.49023C13.5591 5.49023 10.3391 8.71027 10.3391 12.6806C10.3391 16.6509 13.5591 19.871 17.5295 19.871C21.4998 19.871 24.7199 16.6509 24.7199 12.6806ZM12.2149 12.6806C12.2149 9.74193 14.5908 7.36598 17.5295 7.36598C20.4682 7.36598 22.8441 9.74193 22.8441 12.6806C22.8441 15.6193 20.4682 17.9952 17.5295 17.9952C14.5908 17.9952 12.2149 15.6193 12.2149 12.6806Z" fill="black"/>
<path d="M5.49347 30.8753C5.64978 30.9691 5.80609 31.0004 5.96241 31.0004C6.27503 31.0004 6.61892 30.8441 6.77523 30.5315C8.96361 26.6549 13.0903 24.2477 17.5295 24.2477C21.9688 24.2477 26.0955 26.6549 28.3151 30.5315C28.5652 30.9691 29.1592 31.1254 29.5969 30.8753C30.0345 30.6252 30.1908 30.0313 29.9407 29.5936C27.4085 25.1543 22.6566 22.3719 17.5295 22.3719C12.4025 22.3719 7.65058 25.1543 5.11832 29.5936C4.86822 30.0313 5.02453 30.6252 5.49347 30.8753Z" fill="black"/>
</svg>
