<svg width="24" height="25" viewBox="0 0 24 25" fill="none" xmlns="http://www.w3.org/2000/svg">
<path d="M19.0898 7.61253L19.0894 7.61201C18.5309 6.87813 17.7418 6.35331 16.8491 6.12185C15.9563 5.8904 15.0117 5.96574 14.1669 6.33578L14.1644 6.33687L14.1644 6.33687C13.4058 6.66423 12.7162 7.22173 12.1487 7.97933L11.748 8.51414L11.348 7.97886C10.7805 7.2195 10.0914 6.66248 9.33358 6.33726L9.33015 6.33579L9.33016 6.33578C8.48538 5.96574 7.54075 5.8904 6.648 6.12185C5.75525 6.35331 4.96622 6.87813 4.40765 7.61201L4.40726 7.61253C3.81886 8.38351 3.5 9.35645 3.5 10.4374C3.5 11.9383 4.40094 13.681 6.36354 15.6251L19.0898 7.61253ZM19.0898 7.61253C19.6782 8.38351 19.9971 9.35645 19.9971 10.4374C19.9971 11.9384 19.0961 13.6819 17.1335 15.6251C15.542 17.2011 13.6511 18.4994 12.661 19.1359C12.3885 19.3101 12.0719 19.4027 11.7485 19.4027C11.4251 19.4027 11.1084 19.3101 10.836 19.1358M19.0898 7.61253L10.836 19.1358M10.836 19.1358C9.8453 18.4994 7.95521 17.2011 6.36362 15.6252L10.836 19.1358Z" stroke="#F9595F"/>
<path d="M19.5 8.49024C21.5 11.2902 17 15.9902 12 19.4902C10 19.4902 5.83333 14.4902 4 11.9902V8.49024C4.83333 7.6569 6.7 5.99023 7.5 5.99023C8.3 5.99023 9.5 6.6569 10 6.99023L12 8.49023L14 6.49024C15 5.99023 17.5 5.69024 19.5 8.49024Z" fill="#F9595F"/>
</svg>
