<svg width="37" height="38" viewBox="0 0 37 38" fill="none" xmlns="http://www.w3.org/2000/svg">
<path d="M31.5436 11.0792L31.5428 11.0781C30.554 9.73991 29.1616 8.78843 27.593 8.36951C26.0248 7.95072 24.3655 8.08666 22.8796 8.75711L22.8745 8.7594L22.8745 8.75939C21.5385 9.35325 20.3175 10.3677 19.3088 11.7547L18.4991 12.868L17.6906 11.7537C16.682 10.3635 15.4617 9.35008 14.1274 8.76021L14.1205 8.75714L14.1205 8.75711C12.6346 8.08666 10.9753 7.95072 9.40709 8.36951C7.83849 8.78843 6.44608 9.73991 5.45728 11.0781L5.45651 11.0792C4.41441 12.4857 3.84619 14.2659 3.84619 16.2496C3.84619 18.9961 5.44661 22.1921 8.94918 25.7661L31.5436 11.0792ZM31.5436 11.0792C32.5857 12.4857 33.1539 14.2659 33.1539 16.2496C33.1539 18.9962 31.5533 22.1937 28.0509 25.7661C25.21 28.6636 21.8334 31.052 20.0644 32.2234C19.5948 32.5327 19.0521 32.6954 18.5 32.6954C17.9481 32.6954 17.4054 32.5328 16.9359 32.2235M31.5436 11.0792L16.9359 32.2235M16.9359 32.2235C15.166 31.0525 11.7905 28.6641 8.94933 25.7662L16.9359 32.2235Z" stroke="black" stroke-width="2"/>
<path d="M26.107 27.4057L18.9497 32.5098L9.59027 26.2715L5.18581 18.899L4.63525 14.362L6.83748 10.3922L10.6914 8.12372L14.5453 9.82507L18.3992 13.7949L20.0509 10.9593L25.0059 8.69084L29.4103 9.25795C30.3279 10.9593 32.2732 14.4754 32.7137 14.9291C33.1541 15.3828 32.5301 18.899 32.1631 20.6003L26.107 27.4057Z" fill="black" stroke="black"/>
</svg>
