<svg width="37" height="38" viewBox="0 0 37 38" fill="none" xmlns="http://www.w3.org/2000/svg">
<g clip-path="url(#clip0_1183_5059)">
<path d="M27.671 16.5908L28.9709 17.4738L33 11.7195L25.1969 6.30249H20.6375V7.18167C20.6375 8.63601 19.4543 9.81921 18 9.81921C16.5457 9.81921 15.3625 8.63601 15.3625 7.18167V6.30249H10.8031L3 11.7196L7.02911 17.4738L8.32901 16.5909V32.6779H27.671V16.5908ZM25.9126 30.9196H10.0874V13.2709L7.47515 15.0452L5.45303 12.1572L11.3536 8.06085H13.6924C14.1009 10.0649 15.8771 11.5776 17.9999 11.5776C20.1228 11.5776 21.899 10.0649 22.3075 8.06085H24.6463L30.5469 12.1572L28.5248 15.0452L25.9126 13.2709V30.9196Z" fill="black"/>
<path d="M26.5 31.4902H10L9.5 30.9902V14.9902L7 15.9902L4 11.9902L11 7.49023L14 6.99023L14.5 8.99023L17 10.4902L19 10.9902L21 9.49023L22 6.99023H25L31.5 11.9902L28.5 15.9902L26.5 14.4902V31.4902Z" fill="black" stroke="black"/>
</g>
<defs>
<clipPath id="clip0_1183_5059">
<rect width="30" height="30" fill="white" transform="translate(3 4.49023)"/>
</clipPath>
</defs>
</svg>
