<svg width="37" height="38" viewBox="0 0 37 38" fill="none" xmlns="http://www.w3.org/2000/svg">
<g clip-path="url(#clip0_1183_4842)">
<path d="M14.1709 5.49023H6.13201C4.95648 5.49023 4.00024 6.44647 4.00024 7.622V15.6609C4.00024 16.8364 4.95648 17.7927 6.13201 17.7927H14.1709C15.3464 17.7927 16.3027 16.8364 16.3027 15.6609V7.622C16.3025 6.44647 15.3464 5.49023 14.1709 5.49023Z" fill="black"/>
<path d="M29.8682 5.49023H21.8293C20.6537 5.49023 19.6975 6.44647 19.6975 7.622V15.6609C19.6975 16.8364 20.6537 17.7927 21.8293 17.7927H29.8682C31.0437 17.7927 31.9999 16.8364 31.9999 15.6609V7.622C31.9999 6.44647 31.0437 5.49023 29.8682 5.49023Z" fill="black"/>
<path d="M14.1709 21.1878H6.13201C4.95648 21.1878 4.00024 22.1439 4.00024 23.3195V31.3584C4.00024 32.5339 4.95648 33.4901 6.13201 33.4901H14.1709C15.3464 33.4901 16.3027 32.5339 16.3027 31.3584V23.3195C16.3025 22.1439 15.3464 21.1878 14.1709 21.1878Z" fill="black"/>
<path d="M29.8682 21.1878H21.8293C20.6537 21.1878 19.6975 22.144 19.6975 23.3196V31.3585C19.6975 32.534 20.6537 33.4902 21.8293 33.4902H29.8682C31.0437 33.4901 31.9999 32.5339 31.9999 31.3584V23.3195C31.9999 22.1439 31.0437 21.1878 29.8682 21.1878Z" fill="black"/>
</g>
<defs>
<clipPath id="clip0_1183_4842">
<rect width="28" height="28" fill="white" transform="translate(4 5.49023)"/>
</clipPath>
</defs>
</svg>
