<svg width="40" height="41" viewBox="0 0 40 41" fill="none" xmlns="http://www.w3.org/2000/svg">
<path d="M11.9164 14.8113V11.8174V8.82361C11.9164 8.1335 11.3569 7.57361 10.6664 7.57361C9.97591 7.57361 9.41642 8.1335 9.41642 8.82361V14.8113C8.05768 15.3209 7.08325 16.6225 7.08325 18.1571C7.08325 19.6917 8.05768 20.9933 9.41642 21.5029V32.157C9.41642 32.8471 9.97591 33.407 10.6664 33.407C11.3569 33.407 11.9164 32.8471 11.9164 32.157V21.5029C13.2753 20.9933 14.25 19.6918 14.25 18.1571C14.25 16.6224 13.2753 15.3209 11.9164 14.8113Z" fill="black"/>
<path d="M21.2499 20.2557V8.82361C21.2499 8.1335 20.6904 7.57361 19.9999 7.57361C19.3094 7.57361 18.7499 8.1335 18.7499 8.82361V20.2557C17.3912 20.7652 16.4167 22.0668 16.4167 23.6014C16.4167 25.1361 17.3912 26.4376 18.7499 26.9472V32.157C18.7499 32.8471 19.3094 33.407 19.9999 33.407C20.6904 33.407 21.2499 32.8471 21.2499 32.157V26.9472C22.6088 26.4377 23.5831 25.1361 23.5831 23.6014C23.5831 22.0668 22.6088 20.7652 21.2499 20.2557Z" fill="black"/>
<path d="M30.5833 14.8113V8.82361C30.5833 8.1335 30.0238 7.57361 29.3333 7.57361C28.6428 7.57361 28.0833 8.1335 28.0833 8.82361V14.8113C26.7244 15.3209 25.7498 16.6224 25.7498 18.1571C25.7498 19.6918 26.7244 20.9933 28.0833 21.5029V32.157C28.0833 32.8471 28.6428 33.407 29.3333 33.407C30.0238 33.407 30.5833 32.8471 30.5833 32.157V21.5029C31.9422 20.9934 32.9165 19.6918 32.9165 18.1571C32.9165 16.6224 31.9422 15.3209 30.5833 14.8113Z" fill="black"/>
</svg>
