<svg width="37" height="38" viewBox="0 0 37 38" fill="none" xmlns="http://www.w3.org/2000/svg">
<g clip-path="url(#clip0_1183_4853)">
<path d="M28.3157 16.3976L29.7023 17.3394L34 11.2015L25.6766 5.42334H20.8134V6.36113C20.8134 7.91243 19.5513 9.17451 18 9.17451C16.4487 9.17451 15.1866 7.91243 15.1866 6.36113V5.42334H10.3234L2 11.2016L6.29772 17.3394L7.68428 16.3976V33.5571H28.3157V16.3976ZM26.4401 31.6816H9.55986V12.8563L6.77349 14.7489L4.61657 11.6684L10.9105 7.29893H13.4052C13.841 9.43653 15.7355 11.0501 17.9999 11.0501C20.2643 11.0501 22.1589 9.43653 22.5947 7.29893H25.0893L31.3834 11.6684L29.2264 14.7489L26.4401 12.8563V31.6816Z" fill="black"/>
</g>
<defs>
<clipPath id="clip0_1183_4853">
<rect width="32" height="32" fill="white" transform="translate(2 3.49023)"/>
</clipPath>
</defs>
</svg>
