<svg width="37" height="38" viewBox="0 0 37 38" fill="none" xmlns="http://www.w3.org/2000/svg">
<path d="M32.292 9.61933L32.2912 9.61829C31.2419 8.19807 29.7638 7.18795 28.0984 6.74317C26.4334 6.29851 24.6716 6.44287 23.0941 7.15467L23.089 7.15696L23.089 7.15695C21.671 7.78727 20.3768 8.86318 19.3087 10.3317L18.499 11.4451L17.6906 10.3308C16.6227 8.85881 15.3292 7.7839 13.9129 7.15777L13.9059 7.1547L13.906 7.15467C12.3284 6.44287 10.5666 6.29851 8.90159 6.74317C7.23615 7.18795 5.75814 8.19807 4.70875 9.61829L4.70798 9.61933C3.60199 11.1121 3 13.0001 3 15.1015C3 18.0172 4.69843 21.3989 8.39428 25.1701L32.292 9.61933ZM32.292 9.61933C33.398 11.1121 34 13.0001 34 15.1015C34 18.0173 32.3014 21.4006 28.6057 25.1701C25.6073 28.2284 22.0445 30.7483 20.1787 31.9838C19.675 32.3156 19.0925 32.4902 18.5 32.4902C17.9075 32.4902 17.3251 32.3156 16.8215 31.9839M32.292 9.61933L16.8215 31.9839M16.8215 31.9839C14.9548 30.7488 11.3931 28.2288 8.39443 25.1703L16.8215 31.9839Z" stroke="black" stroke-width="2"/>
</svg>
