<svg width="37" height="38" viewBox="0 0 37 38" fill="none" xmlns="http://www.w3.org/2000/svg">
<g clip-path="url(#clip0_1183_5048)">
<path d="M14.2651 5.49023H6.42422C5.08747 5.49023 4 6.57771 4 7.91445V15.7553C4 17.092 5.08747 18.1795 6.42422 18.1795H14.2651C15.6018 18.1795 16.6893 17.092 16.6893 15.7553V7.91445C16.6894 6.57771 15.6018 5.49023 14.2651 5.49023ZM14.7175 15.7553C14.7175 16.0048 14.5145 16.2077 14.2651 16.2077H6.42422C6.17476 16.2077 5.97178 16.0048 5.97178 15.7553V7.91445C5.97178 7.665 6.17476 7.46202 6.42422 7.46202H14.2651C14.5145 7.46202 14.7175 7.665 14.7175 7.91445V15.7553Z" fill="black"/>
<path d="M29.5759 5.49023H21.735C20.3983 5.49023 19.3108 6.57771 19.3108 7.91445V15.7553C19.3108 17.092 20.3983 18.1795 21.735 18.1795H29.5759C30.9126 18.1795 32.0001 17.092 32.0001 15.7553V7.91445C32.0001 6.57771 30.9126 5.49023 29.5759 5.49023ZM30.0283 15.7553C30.0283 16.0048 29.8253 16.2077 29.5759 16.2077H21.735C21.4856 16.2077 21.2826 16.0048 21.2826 15.7553V7.91445C21.2826 7.665 21.4856 7.46202 21.735 7.46202H29.5759C29.8253 7.46202 30.0283 7.665 30.0283 7.91445V15.7553Z" fill="black"/>
<path d="M14.2651 20.8008H6.42422C5.08747 20.8008 4 21.8884 4 23.2252V31.066C4 32.4027 5.08747 33.4902 6.42422 33.4902H14.2651C15.6018 33.4902 16.6893 32.4027 16.6893 31.066V23.2252C16.6894 21.8884 15.6018 20.8008 14.2651 20.8008ZM14.7175 31.066C14.7175 31.3155 14.5145 31.5184 14.2651 31.5184H6.42422C6.17476 31.5184 5.97178 31.3155 5.97178 31.066V23.2252C5.97178 22.9757 6.17476 22.7727 6.42422 22.7727H14.2651C14.5145 22.7727 14.7175 22.9757 14.7175 23.2252V31.066Z" fill="black"/>
<path d="M29.5759 20.8008H21.735C20.3983 20.8008 19.3108 21.8883 19.3108 23.2251V31.0659C19.3108 32.4026 20.3983 33.4901 21.735 33.4901H29.5759C30.9126 33.4902 32.0001 32.4027 32.0001 31.066V23.2252C32.0001 21.8884 30.9126 20.8008 29.5759 20.8008ZM30.0283 31.066C30.0283 31.3155 29.8253 31.5184 29.5759 31.5184H21.735C21.4856 31.5184 21.2826 31.3155 21.2826 31.066V23.2252C21.2826 22.9757 21.4856 22.7727 21.735 22.7727H29.5759C29.8253 22.7727 30.0283 22.9757 30.0283 23.2252V31.066Z" fill="black"/>
</g>
<defs>
<clipPath id="clip0_1183_5048">
<rect width="28" height="28" fill="white" transform="translate(4 5.49023)"/>
</clipPath>
</defs>
</svg>
